<svg width="33" height="32" viewBox="0 0 33 32" fill="none" xmlns="http://www.w3.org/2000/svg">
<path d="M31.4965 0.931172C30.6962 0.109757 29.5117 -0.196261 28.4072 0.125863L2.6527 7.61524C1.48742 7.93897 0.661482 8.8683 0.438991 10.0489C0.211698 11.2504 1.00562 12.7757 2.04285 13.4135L10.0957 18.3629C10.9217 18.8702 11.9877 18.743 12.6712 18.0537L21.8926 8.77488C22.3568 8.2917 23.1251 8.2917 23.5893 8.77488C24.0535 9.24196 24.0535 9.99895 23.5893 10.4821L14.3519 19.7625C13.6668 20.4503 13.5388 21.5213 14.043 22.3524L18.9634 30.486C19.5396 31.4524 20.532 32 21.6205 32C21.7485 32 21.8926 32 22.0206 31.9839C23.2691 31.8228 24.2615 30.9692 24.6297 29.7612L32.2648 4.03967C32.601 2.94445 32.2968 1.75259 31.4965 0.931172" fill="#00F6FF"/>
</svg>
